<svg xmlns="http://www.w3.org/2000/svg" viewBox="0 -6 68.58 68.58">
  <path fill="#fff" d="M36.86 0c-2.82-.01-5.55.53-8.13 1.62l-5 2.14a10.74 10.74 0 00-.08.03 20.68 20.68 0 00-12.5 19V53c0 .3.17.57.44.7l4.29 1.97.06.03a2.5 2.5 0 001.83-.06l4.3-1.84c.28-.12.47-.4.47-.7V43l28.2 12.5a2.5 2.5 0 002 .02l4.24-1.81c.28-.12.46-.4.46-.7V20.9A20.85 20.85 0 0036.86 0zm14.12 53.93L22.08 41.1a.77.77 0 00-1.07.7v10.78l-3.4 1.45V22.8c0-5.28 2.9-9.9 7.19-12.35A15.7 15.7 0 0021 20.68V36.4c0 .3.18.58.46.7L46.5 48.2a.77.77 0 001.08-.7V22.8A15.77 15.77 0 0028.3 7.44c-7 1.6-12.22 7.88-12.22 15.35v31.28l-3.4-1.57V22.8c0-7.66 4.54-14.57 11.57-17.6l.08-.03a19.13 19.13 0 017.48-1.53h.02c5.02 0 9.78 2 13.4 5.62a19.4 19.4 0 015.75 13.77v30.9zM22.54 32.17l23.5 10.44v3.73L22.55 35.9v-3.73zm23.5 8.76L22.55 30.5v-9.82A14.2 14.2 0 0128.8 8.9a14.22 14.22 0 0117.24 13.9v18.13zm9.87 11.56l-3.4 1.45V23.03c0-5.59-2.2-10.86-6.2-14.85A20.4 20.4 0 0032.05 2.1c1.56-.4 3.17-.59 4.8-.58 10.51.05 19.06 8.75 19.06 19.38v31.58z"/>
</svg>
